<?xml version="1.0" encoding="UTF-8"?>
<svg version="1.1" xmlns="http://www.w3.org/2000/svg" width="450" height="450">
<path d="M0 0 C0.79952087 -0.00067474 1.59904175 -0.00134949 2.42279053 -0.00204468 C46.49387969 0.05693432 86.90808377 14.60253401 119 45.25 C142.09132509 69.16428636 148.85397283 99.90016018 148.79503441 132.07653809 C148.79146021 136.26983756 148.81735991 140.46301177 148.83789062 144.65625 C148.86219092 149.96235516 148.87789721 155.26806556 148.86254883 160.57421875 C148.85083572 164.89144292 148.86840729 169.20770604 148.90499306 173.52478027 C148.91355297 175.15765316 148.91161376 176.79061934 148.898489 178.42346191 C148.83482029 186.97837058 148.90534149 193.98607401 154.18843079 201.17456055 C163.75123944 214.4141296 164.40476542 236.89478955 162.11328125 252.55859375 C161.45806955 256.49713398 160.61418544 260.36654149 159.6875 264.25 C159.38005859 265.54357422 159.38005859 265.54357422 159.06640625 266.86328125 C156.31631619 276.48005582 150.15678215 285.8160375 141.6875 291.25 C130.86724523 296.42284109 120.14778333 296.43145337 108.375 296.4375 C107.10076172 296.44974609 105.82652344 296.46199219 104.51367188 296.47460938 C103.29615234 296.47654297 102.07863281 296.47847656 100.82421875 296.48046875 C99.71780029 296.48457764 98.61138184 296.48868652 97.47143555 296.49291992 C94.6875 296.25 94.6875 296.25 91.6875 294.25 C90.76926545 291.49529635 90.5564786 289.84618169 90.54032898 287.00587463 C90.52959602 285.7083728 90.52959602 285.7083728 90.51864624 284.38465881 C90.51595734 283.43860275 90.51326843 282.49254669 90.51049805 281.51782227 C90.50392685 280.51919159 90.49735565 279.52056091 90.49058533 278.4916687 C90.47085505 275.18324715 90.45919231 271.87487092 90.44921875 268.56640625 C90.44514322 267.43779615 90.4410677 266.30918606 90.43686867 265.14637566 C90.41601236 259.17660581 90.40170686 253.20685895 90.39233398 247.23706055 C90.38125076 241.06177391 90.34682733 234.88684575 90.30716228 228.71168613 C90.28106545 223.97026381 90.27264847 219.22892795 90.26905251 214.48744011 C90.26417117 212.21040352 90.25251351 209.93337117 90.23401451 207.6564045 C90.20976361 204.47450089 90.21056219 201.29353926 90.2175293 198.11157227 C90.19831421 196.69552452 90.19831421 196.69552452 90.17871094 195.25086975 C90.22910435 188.95282588 90.22910435 188.95282588 92.37800598 185.6580658 C95.19087933 183.94309675 96.82807163 183.78645715 100.109375 183.859375 C101.13417969 183.87226563 102.15898437 183.88515625 103.21484375 183.8984375 C104.81005859 183.94871094 104.81005859 183.94871094 106.4375 184 C107.51644531 184.01804687 108.59539062 184.03609375 109.70703125 184.0546875 C112.36808788 184.10178585 115.02734254 184.167544 117.6875 184.25 C117.71081546 175.60842383 117.72851195 166.96686111 117.73931217 158.32526112 C117.74449941 154.31131175 117.75152015 150.29738412 117.76293945 146.28344727 C117.77391786 142.39955625 117.77980803 138.51568597 117.78237724 134.63178062 C117.78420486 133.16045493 117.7877727 131.6891302 117.79323006 130.21781349 C117.86484803 111.53480688 117.86484803 111.53480688 114.1875 93.3125 C113.92686768 92.46059082 113.66623535 91.60868164 113.39770508 90.73095703 C106.16550506 68.57778395 88.06327088 53.00470854 68.00390625 42.35546875 C56.64376796 36.62945498 44.22244765 32.39453321 31.6875 30.25 C30.51445312 30.04632813 29.34140625 29.84265625 28.1328125 29.6328125 C-8.2952842 24.36696882 -49.5541568 28.51957404 -80.375 50.25 C-82.04223508 51.55647324 -83.68896725 52.88960059 -85.3125 54.25 C-86.15941406 54.94738281 -87.00632812 55.64476562 -87.87890625 56.36328125 C-104.50986326 70.65828704 -114.46301929 88.63131828 -116.52635193 110.51847076 C-116.83509638 115.81728426 -116.77537454 121.1092513 -116.703125 126.4140625 C-116.695635 128.06984767 -116.6899552 129.72564189 -116.68597412 131.38143921 C-116.67093416 135.6722603 -116.63184882 139.96251184 -116.5871582 144.25311279 C-116.545729 148.65824689 -116.52786299 153.06347592 -116.5078125 157.46875 C-116.4653255 166.06275706 -116.3973489 174.65630707 -116.3125 183.25 C-115.63147217 183.26458252 -114.95044434 183.27916504 -114.2487793 183.29418945 C-111.16527785 183.36862696 -108.08286433 183.46530083 -105 183.5625 C-103.3922168 183.59633789 -103.3922168 183.59633789 -101.75195312 183.63085938 C-100.72392578 183.66630859 -99.69589844 183.70175781 -98.63671875 183.73828125 C-97.2149231 183.77755737 -97.2149231 183.77755737 -95.7644043 183.81762695 C-92.84490532 184.33245646 -92.11943324 184.94910424 -90.3125 187.25 C-89.93218327 189.26620483 -89.93218327 189.26620483 -89.92481995 191.61474609 C-89.91491531 192.50643494 -89.90501068 193.39812378 -89.89480591 194.3168335 C-89.89930756 195.29251282 -89.9038092 196.26819214 -89.90844727 197.2734375 C-89.90158401 198.30293518 -89.89472076 199.33243286 -89.88764954 200.39312744 C-89.8693138 203.80389101 -89.87322846 207.21419762 -89.87890625 210.625 C-89.87434801 212.99007315 -89.86904351 215.35514497 -89.86302185 217.72021484 C-89.85407763 222.68006772 -89.85652921 227.63975969 -89.86645508 232.59960938 C-89.87795157 238.96561221 -89.85772894 245.33106095 -89.82853794 251.69699097 C-89.81022132 256.58166042 -89.81045926 261.46619595 -89.81617546 266.35089111 C-89.8163292 268.69851459 -89.81024146 271.04614684 -89.79788399 273.39373779 C-89.78306023 276.67170325 -89.79358785 279.94863027 -89.81079102 283.2265625 C-89.80112305 284.20224182 -89.79145508 285.17792114 -89.78149414 286.1831665 C-89.79624535 287.52069977 -89.79624535 287.52069977 -89.81129456 288.88525391 C-89.81160848 290.04778183 -89.81160848 290.04778183 -89.81192875 291.23379517 C-90.3125 293.25 -90.3125 293.25 -92.15997219 294.99952698 C-95.09206414 296.70287402 -97.28163764 296.62224155 -100.66015625 296.61328125 C-102.52897461 296.61231445 -102.52897461 296.61231445 -104.43554688 296.61132812 C-105.73556641 296.59521484 -107.03558594 296.57910156 -108.375 296.5625 C-109.64794922 296.56572266 -110.92089844 296.56894531 -112.23242188 296.57226562 C-125.45439085 296.49756524 -136.81965968 295.51467696 -146.875 286.375 C-161.07889483 271.38608853 -161.99678787 252.2286871 -161.5859375 232.703125 C-161.05653768 217.52116314 -156.73996987 204.8912048 -148.3125 192.25 C-148.11504709 189.68181742 -148.03226786 187.22045458 -148.04125977 184.65185547 C-148.03603302 183.87893158 -148.03080627 183.10600769 -148.02542114 182.30966187 C-148.01517394 180.62857978 -148.00939948 178.9474659 -148.00753975 177.26635361 C-148.00386855 174.58970272 -147.98711337 171.91341997 -147.96678162 169.23684692 C-147.91149692 161.62525359 -147.88095588 154.01360256 -147.85620117 146.40185547 C-147.84013802 141.74278272 -147.80970975 137.08396241 -147.77143669 132.42502213 C-147.75992945 130.66396943 -147.75385762 128.90287114 -147.75375557 127.14178085 C-147.7511607 94.22522689 -137.82473215 65.62483953 -114.5625 42 C-107.67889329 35.19818674 -100.4496994 29.46441059 -92.3125 24.25 C-91.37664062 23.62996094 -90.44078125 23.00992188 -89.4765625 22.37109375 C-62.95620504 5.76801282 -30.76660803 0.02335422 0 0 Z " fill="#3E814B" transform="translate(224.3125,76.75)"/>
<path d="M0 0 C25.4075698 -0.02332591 50.815138 -0.04097766 76.22271633 -0.05181217 C88.01900528 -0.05697579 99.81528758 -0.06401972 111.61157227 -0.07543945 C121.88920997 -0.0853843 132.16684287 -0.09185295 142.44448525 -0.09408849 C147.89001788 -0.09539594 153.33553675 -0.09848393 158.78106499 -0.10573006 C163.90025209 -0.11248713 169.0194197 -0.1146176 174.13861084 -0.11310768 C176.02327136 -0.11338415 177.9079325 -0.11539112 179.79258919 -0.11920547 C182.35401437 -0.12413785 184.91536468 -0.12299999 187.47679138 -0.12025452 C188.23261346 -0.12316736 188.98843553 -0.1260802 189.76716131 -0.12908131 C194.88587879 -0.11412121 194.88587879 -0.11412121 196 1 C196.08631874 2.34267413 196.10706473 3.68974322 196.09765625 5.03515625 C196.09443359 5.84404297 196.09121094 6.65292969 196.08789062 7.48632812 C196.07951172 8.33646484 196.07113281 9.18660156 196.0625 10.0625 C196.05798828 10.91650391 196.05347656 11.77050781 196.04882812 12.65039062 C196.03700373 14.76695663 196.01906769 16.88348685 196 19 C192.08521829 20.95739086 187.1134995 20.30208351 182.796875 20.42578125 C178.40503931 21.08997862 176.31791023 22.06086854 173 25 C169.64991529 31.02081817 169.56366394 36.35739995 169.58349609 43.15185547 C169.57061806 44.80420952 169.57061806 44.80420952 169.55747986 46.48994446 C169.53246903 50.11575765 169.5280462 53.74129603 169.5234375 57.3671875 C169.50912661 59.88828364 169.49336944 62.40937196 169.47622681 64.93045044 C169.43867971 70.87889316 169.41351624 76.82729967 169.39510214 82.77582467 C169.35962527 94.07768844 169.29603712 105.37940314 169.23024368 116.68112564 C169.21109063 120.3999554 169.19940779 124.11875309 169.18881226 127.83761597 C169.17860702 130.09991528 169.16824969 132.36221392 169.15771484 134.62451172 C169.15667252 135.66655258 169.15563019 136.70859344 169.15455627 137.7822113 C169.14910294 138.72426926 169.1436496 139.66632721 169.13803101 140.63693237 C169.13547491 141.46021971 169.13291882 142.28350704 169.13028526 143.13174248 C169 145 169 145 168 146 C166.40389018 146.09333705 164.80366572 146.11745372 163.20483398 146.11352539 C162.18385117 146.11344986 161.16286835 146.11337433 160.11094666 146.11329651 C159.0005452 146.10813522 157.89014374 146.10297394 156.74609375 146.09765625 C155.61551041 146.0962413 154.48492706 146.09482635 153.32008362 146.09336853 C149.69252935 146.08775019 146.06503576 146.07519458 142.4375 146.0625 C139.98502693 146.05748736 137.5325529 146.05292405 135.08007812 146.04882812 C129.05336455 146.0377748 123.02668661 146.02101884 117 146 C115.36810227 142.73620454 115.85587264 139.13322204 115.8581543 135.54638672 C115.85467987 134.67137009 115.85120544 133.79635345 115.84762573 132.89482117 C115.84026191 130.98996494 115.83491987 129.08510009 115.83133507 127.180233 C115.82417623 124.16176127 115.80851238 121.14345274 115.78999329 118.12503052 C115.73750793 109.54105925 115.68957787 100.95717502 115.67407227 92.37304688 C115.66397049 87.1250764 115.63458567 81.87751295 115.59275246 76.62970352 C115.58046425 74.63234669 115.57531721 72.63493229 115.57755089 70.63753891 C115.57991324 67.83458075 115.55766508 65.03278157 115.5300293 62.22998047 C115.53663071 61.41096756 115.54323212 60.59195465 115.55003357 59.74812317 C115.45882777 54.0875069 114.18017801 49.7285388 111 45 C106.48312888 40.90330294 101.97167276 39.76388773 96 40 C91.06953286 40.83377005 87.2922436 42.20262819 84 46.0625 C81.1638848 50.22804421 80.83941429 52.2909049 80.68359375 57.3203125 C80.66281265 57.98720596 80.64203156 58.65409943 80.62062073 59.34120178 C80.55338715 61.60233787 80.4949221 63.86359456 80.4375 66.125 C80.40523315 67.29719589 80.40523315 67.29719589 80.37231445 68.49307251 C79.85793962 87.58684802 79.94125774 106.68481509 80.03686523 125.78369141 C80.04326271 127.5720768 80.04326271 127.5720768 80.04978943 129.39659119 C80.05809949 131.65797409 80.07058938 133.91934651 80.08778381 136.18067932 C80.09267067 137.68488686 80.09267067 137.68488686 80.09765625 139.21948242 C80.10289307 140.0982756 80.10812988 140.97706879 80.11352539 141.88249207 C80 144 80 144 79 146 C62.17 146 45.34 146 28 146 C25.75012838 139.25038514 25.75012838 139.25038514 25.74171448 135.13609314 C25.73488647 134.20951401 25.72805847 133.28293488 25.72102356 132.32827759 C25.72485298 130.82954605 25.72485298 130.82954605 25.72875977 129.30053711 C25.72353302 128.23479965 25.71830627 127.16906219 25.71292114 126.07102966 C25.70269971 123.76299953 25.69690398 121.45494647 25.69503975 119.14689445 C25.69137337 115.49459457 25.67464026 111.84256552 25.65428162 108.19032288 C25.59888566 97.8084923 25.56814252 87.42662248 25.54370117 77.04467773 C25.52783974 70.68994576 25.49763956 64.33540754 25.45893669 57.98077583 C25.44727856 55.55947486 25.44135627 53.13813927 25.44125557 50.71681023 C25.44106383 47.33435653 25.42282096 43.95243892 25.40063477 40.57006836 C25.40521194 39.56888977 25.40978912 38.56771118 25.414505 37.53619385 C25.34647824 31.0227734 24.42532781 27.53438032 19.828125 22.73046875 C16.17564892 20.49559734 12.91489999 20.3686812 8.75 20.3125 C1.08998187 20.08998187 1.08998187 20.08998187 0 19 C-0.08651611 17.58429877 -0.10704904 16.164405 -0.09765625 14.74609375 C-0.09443359 13.89208984 -0.09121094 13.03808594 -0.08789062 12.15820312 C-0.07951172 11.26037109 -0.07113281 10.36253906 -0.0625 9.4375 C-0.05798828 8.53580078 -0.05347656 7.63410156 -0.04882812 6.70507812 C-0.03700225 4.46998686 -0.0205222 2.23502563 0 0 Z " fill="#91D033" transform="translate(127,227)"/>
<path d="M0 0 C1.9375 0.08203125 1.9375 0.08203125 4 1 C5.125 3.51171875 5.125 3.51171875 6 6.6875 C7.73541737 12.90866137 9.60726604 17.45762492 15.1875 21.0546875 C16.44932244 21.6799813 17.7209205 22.28581086 19 22.875 C19.68989014 23.20814209 20.37978027 23.54128418 21.09057617 23.88452148 C26.72579177 26.54877096 32.50285139 28.81168425 38.3125 31.0625 C45.80669411 33.96651793 52.49758071 37.20116658 59 42 C60.0725 42.721875 61.145 43.44375 62.25 44.1875 C70.25507428 52.37450778 74.36852234 62.25349366 74.25 73.5625 C74.25773438 74.30435547 74.26546875 75.04621094 74.2734375 75.81054688 C74.27085937 76.53435547 74.26828125 77.25816406 74.265625 78.00390625 C74.26336914 78.65174072 74.26111328 79.2995752 74.25878906 79.96704102 C74 82 74 82 72 87 C25.47 87 -21.06 87 -69 87 C-72.64569304 79.70861392 -73.05704787 70.11048139 -70.8515625 62.21484375 C-65.41055195 48.06322457 -56.51473036 40.29633637 -43 34 C-37.24146208 31.56925141 -31.43685811 29.25433745 -25.59472656 27.03222656 C-17.34114075 23.82421116 -10.0925334 20.50262145 -5 13 C-4.22522109 10.96152998 -3.5195347 8.89581884 -2.875 6.8125 C-1.08963093 1.08963093 -1.08963093 1.08963093 0 0 Z " fill="#91CF33" transform="translate(224,125)"/>
<path d="M0 0 C0.87161662 3.00078753 1.11537694 5.64414926 1.08901978 8.76420593 C1.08342545 9.71905884 1.07783112 10.67391174 1.07206726 11.65769958 C1.06069229 12.69838089 1.04931732 13.73906219 1.03759766 14.8112793 C1.02559578 16.46297623 1.02559578 16.46297623 1.01335144 18.14804077 C0.98545441 21.79016345 0.94998798 25.43216705 0.9140625 29.07421875 C0.8922989 31.59959147 0.87084912 34.1249669 0.84970093 36.65034485 C0.80419817 41.9421453 0.75507022 47.23389499 0.703125 52.52563477 C0.64306723 58.6502328 0.59031773 64.77486174 0.54135668 70.89955777 C0.49408139 76.78785144 0.44124494 82.67608538 0.38599777 88.56431007 C0.36302497 91.07265758 0.34152483 93.581019 0.32149124 96.08939171 C0.29284917 99.5852949 0.25789506 103.08107775 0.22119141 106.5769043 C0.2138649 107.62365829 0.20653839 108.67041229 0.19898987 109.74888611 C0.18775589 110.69527954 0.17652191 111.64167297 0.16494751 112.616745 C0.15719614 113.44392879 0.14944477 114.27111258 0.14145851 115.12336254 C0 117 0 117 -1 118 C-2.59610982 118.09333705 -4.19633428 118.11745372 -5.79516602 118.11352539 C-6.81614883 118.11344986 -7.83713165 118.11337433 -8.88905334 118.11329651 C-9.9994548 118.10813522 -11.10985626 118.10297394 -12.25390625 118.09765625 C-13.38448959 118.0962413 -14.51507294 118.09482635 -15.67991638 118.09336853 C-19.30747065 118.08775019 -22.93496424 118.07519458 -26.5625 118.0625 C-29.01497307 118.05748736 -31.4674471 118.05292405 -33.91992188 118.04882812 C-39.94663545 118.0377748 -45.97331339 118.02101884 -52 118 C-53.7026057 114.59478859 -53.12864821 110.70607881 -53.11352539 106.96044922 C-53.11367142 106.02381439 -53.11381744 105.08717957 -53.1139679 104.12216187 C-53.11326944 101.01631378 -53.10548015 97.91052515 -53.09765625 94.8046875 C-53.09579183 92.65520256 -53.09436804 90.5057172 -53.09336853 88.35623169 C-53.08954522 82.69104851 -53.07971651 77.02589085 -53.06866455 71.36071777 C-53.05844644 65.58292994 -53.05387005 59.805138 -53.04882812 54.02734375 C-53.03809409 42.6848846 -53.02101989 31.34244442 -53 20 C-52.67 20.66 -52.34 21.32 -52 22 C-51.34 22.33 -50.68 22.66 -50 23 C-50 53.36 -50 83.72 -50 115 C-35.48 115 -20.96 115 -6 115 C-5.67 95.86 -5.34 76.72 -5 57 C-4.67 57 -4.34 57 -4 57 C-3.67 64.26 -3.34 71.52 -3 79 C-2.96241577 76.3084375 -2.96241577 76.3084375 -2.92407227 73.5625 C-2.83944638 67.56748578 -2.7512214 61.57253312 -2.66066074 55.5776062 C-2.60599621 51.95052581 -2.55268098 48.32343705 -2.50268555 44.69628906 C-1.91010854 1.91010854 -1.91010854 1.91010854 0 0 Z " fill="#8CBC35" transform="translate(296,255)"/>
<path d="M0 0 C25.4075698 -0.02332591 50.815138 -0.04097766 76.22271633 -0.05181217 C88.01900528 -0.05697579 99.81528758 -0.06401972 111.61157227 -0.07543945 C121.88920997 -0.0853843 132.16684287 -0.09185295 142.44448525 -0.09408849 C147.89001788 -0.09539594 153.33553675 -0.09848393 158.78106499 -0.10573006 C163.90025209 -0.11248713 169.0194197 -0.1146176 174.13861084 -0.11310768 C176.02327136 -0.11338415 177.9079325 -0.11539112 179.79258919 -0.11920547 C182.35401437 -0.12413785 184.91536468 -0.12299999 187.47679138 -0.12025452 C188.23261346 -0.12316736 188.98843553 -0.1260802 189.76716131 -0.12908131 C194.88587879 -0.11412121 194.88587879 -0.11412121 196 1 C196.08631874 2.34267413 196.10706473 3.68974322 196.09765625 5.03515625 C196.09443359 5.84404297 196.09121094 6.65292969 196.08789062 7.48632812 C196.07951172 8.33646484 196.07113281 9.18660156 196.0625 10.0625 C196.05798828 10.91650391 196.05347656 11.77050781 196.04882812 12.65039062 C196.03700373 14.76695663 196.01906769 16.88348685 196 19 C192.70039859 20.6498007 189.00872116 20.38258361 185.375 20.5625 C184.17230469 20.62727539 184.17230469 20.62727539 182.9453125 20.69335938 C180.9637489 20.79951457 178.98189729 20.90026855 177 21 C177 20.01 177 19.02 177 18 C182.3911342 16.74831071 187.48141974 16.93351108 193 17 C193 12.05 193 7.1 193 2 C98.95 2.495 98.95 2.495 3 3 C2.67 7.62 2.34 12.24 2 17 C5.09375 17.0309375 5.09375 17.0309375 8.25 17.0625 C9.99023438 17.07990234 9.99023438 17.07990234 11.765625 17.09765625 C14.40977128 17.01782092 16.49826091 16.78643778 19 16 C21 19 21 19 20.625 21.1875 C20.315625 22.0846875 20.315625 22.0846875 20 23 C19.01 22.34 18.02 21.68 17 21 C14.26843062 20.72457149 11.61223976 20.5361176 8.875 20.4375 C1.12058024 20.12058024 1.12058024 20.12058024 0 19 C-0.08651611 17.58429877 -0.10704904 16.164405 -0.09765625 14.74609375 C-0.09443359 13.89208984 -0.09121094 13.03808594 -0.08789062 12.15820312 C-0.07951172 11.26037109 -0.07113281 10.36253906 -0.0625 9.4375 C-0.05798828 8.53580078 -0.05347656 7.63410156 -0.04882812 6.70507812 C-0.03700225 4.46998686 -0.0205222 2.23502563 0 0 Z " fill="#90B643" transform="translate(127,227)"/>
<path d="M0 0 C4.09233259 1.49002879 6.74088311 3.24369648 9.375 6.8125 C9.6875 9.625 9.6875 9.625 9.375 11.8125 C8.83875 11.07 8.3025 10.3275 7.75 9.5625 C4.08813207 5.3224424 0.62963092 2.77699159 -4.9375 1.875 C-9.92005605 1.53890853 -14.22588049 2.42538089 -18.625 4.8125 C-21.96009403 7.79820322 -24.48964294 11.00956332 -24.83032227 15.54736328 C-24.86697998 16.73056152 -24.9036377 17.91375977 -24.94140625 19.1328125 C-24.96218735 19.79970596 -24.98296844 20.46659943 -25.00437927 21.15370178 C-25.07161285 23.41483787 -25.1300779 25.67609456 -25.1875 27.9375 C-25.20901123 28.71896393 -25.23052246 29.50042786 -25.25268555 30.30557251 C-25.76706038 49.39934802 -25.68374226 68.49731509 -25.58813477 87.59619141 C-25.58386978 88.78844833 -25.5796048 89.98070526 -25.57521057 91.20909119 C-25.56690051 93.47047409 -25.55441062 95.73184651 -25.53721619 97.99317932 C-25.53395828 98.99598434 -25.53070038 99.99878937 -25.52734375 101.03198242 C-25.52210693 101.9107756 -25.51687012 102.78956879 -25.51147461 103.69499207 C-25.625 105.8125 -25.625 105.8125 -26.625 107.8125 C-33.86986551 107.83776739 -41.11471974 107.8553318 -48.35961914 107.86743164 C-50.82642033 107.87247356 -53.29321852 107.87930691 -55.76000977 107.88793945 C-59.29704529 107.90001125 -62.83404145 107.90572956 -66.37109375 107.91015625 C-67.48149521 107.91531754 -68.59189667 107.92047882 -69.73594666 107.92579651 C-71.26742088 107.92590981 -71.26742088 107.92590981 -72.82983398 107.92602539 C-74.18551735 107.92935631 -74.18551735 107.92935631 -75.56858826 107.93275452 C-77.625 107.8125 -77.625 107.8125 -78.625 106.8125 C-78.66563832 105.14632885 -78.667721 103.47861905 -78.625 101.8125 C-78.295 103.1325 -77.965 104.4525 -77.625 105.8125 C-61.455 105.8125 -45.285 105.8125 -28.625 105.8125 C-28.63660156 99.27824219 -28.64820313 92.74398437 -28.66015625 86.01171875 C-28.66526428 81.87825422 -28.67007815 77.74479357 -28.67382812 73.61132812 C-28.67981164 67.04694818 -28.68689889 60.48258216 -28.70043945 53.91821289 C-28.71128507 48.62737182 -28.71728041 43.33654567 -28.71987724 38.04569435 C-28.72172846 36.02463356 -28.72534329 34.00357361 -28.73073006 31.98251915 C-28.73796266 29.15719192 -28.73898999 26.33192676 -28.73852539 23.5065918 C-28.74212067 22.66646042 -28.74571594 21.82632904 -28.74942017 20.96073914 C-28.74351447 17.65354762 -28.67833067 14.972492 -27.625 11.8125 C-26.965 11.8125 -26.305 11.8125 -25.625 11.8125 C-25.625 10.1625 -25.625 8.5125 -25.625 6.8125 C-24.635 6.8125 -23.645 6.8125 -22.625 6.8125 C-23.12 4.8325 -23.12 4.8325 -23.625 2.8125 C-22.57699219 2.50505859 -22.57699219 2.50505859 -21.5078125 2.19140625 C-20.59773438 1.92199219 -19.68765625 1.65257812 -18.75 1.375 C-17.39261719 0.97474609 -17.39261719 0.97474609 -16.0078125 0.56640625 C-10.21494917 -1.26641772 -6.03921172 -1.78454169 0 0 Z " fill="#8EB438" transform="translate(232.625,265.1875)"/>
<path d="M0 0 C0.87161662 3.00078753 1.11537694 5.64414926 1.08901978 8.76420593 C1.08342545 9.71905884 1.07783112 10.67391174 1.07206726 11.65769958 C1.06069229 12.69838089 1.04931732 13.73906219 1.03759766 14.8112793 C1.02559578 16.46297623 1.02559578 16.46297623 1.01335144 18.14804077 C0.98545441 21.79016345 0.94998798 25.43216705 0.9140625 29.07421875 C0.8922989 31.59959147 0.87084912 34.1249669 0.84970093 36.65034485 C0.80419817 41.9421453 0.75507022 47.23389499 0.703125 52.52563477 C0.64306723 58.6502328 0.59031773 64.77486174 0.54135668 70.89955777 C0.49408139 76.78785144 0.44124494 82.67608538 0.38599777 88.56431007 C0.36302497 91.07265758 0.34152483 93.581019 0.32149124 96.08939171 C0.29284917 99.5852949 0.25789506 103.08107775 0.22119141 106.5769043 C0.2138649 107.62365829 0.20653839 108.67041229 0.19898987 109.74888611 C0.18775589 110.69527954 0.17652191 111.64167297 0.16494751 112.616745 C0.15719614 113.44392879 0.14944477 114.27111258 0.14145851 115.12336254 C0 117 0 117 -1 118 C-2.59610982 118.09333705 -4.19633428 118.11745372 -5.79516602 118.11352539 C-6.81614883 118.11344986 -7.83713165 118.11337433 -8.88905334 118.11329651 C-9.9994548 118.10813522 -11.10985626 118.10297394 -12.25390625 118.09765625 C-13.38448959 118.0962413 -14.51507294 118.09482635 -15.67991638 118.09336853 C-19.30747065 118.08775019 -22.93496424 118.07519458 -26.5625 118.0625 C-29.01497307 118.05748736 -31.4674471 118.05292405 -33.91992188 118.04882812 C-39.94663545 118.0377748 -45.97331339 118.02101884 -52 118 C-52 117.67 -52 117.34 -52 117 C-46.63487263 115.88451668 -41.458154 115.87141739 -36.0078125 115.90234375 C-35.06187225 115.9037587 -34.11593201 115.90517365 -33.1413269 115.90663147 C-30.13585171 115.91220516 -27.13045247 115.9247528 -24.125 115.9375 C-22.08073025 115.9425184 -20.03645932 115.94708071 -17.9921875 115.95117188 C-12.99476264 115.96216597 -7.99739417 115.97941243 -3 116 C-2.98969254 114.79525024 -2.97938507 113.59050049 -2.96876526 112.34924316 C-2.87054117 100.93445377 -2.76776619 89.51971297 -2.66066074 78.10500336 C-2.60575432 72.23815099 -2.55239023 66.37129345 -2.50268555 60.50439453 C-2.45456048 54.83090897 -2.40220822 49.15747604 -2.34705925 43.48405457 C-2.32685132 41.331409 -2.30810615 39.17874913 -2.29092598 37.02607727 C-2.00842819 2.00842819 -2.00842819 2.00842819 0 0 Z " fill="#8DAE34" transform="translate(296,255)"/>
<path d="M0 0 C3.52445791 0.93031376 4.75177622 1.58648839 6.66015625 4.765625 C17.6952358 32.18426276 18.43245999 58.50475584 18.20599365 87.67266846 C18.17484909 92.11832341 18.16150723 96.56403215 18.14648438 101.00976562 C18.11467685 109.67332143 18.0637371 118.3366204 18 127 C17.67 127 17.34 127 17 127 C16.98786972 125.60058418 16.98786972 125.60058418 16.97549438 124.17289734 C16.89806763 115.38817178 16.81033722 106.60360176 16.71247292 97.8190794 C16.66249018 93.30267608 16.61616036 88.78629638 16.578125 84.26977539 C16.5412971 79.91248951 16.49494406 75.55540028 16.44193649 71.19828224 C16.42337924 69.53451798 16.40827621 67.87071155 16.39665604 66.20688438 C16.37981619 63.87949792 16.35078727 61.55256312 16.31884766 59.2253418 C16.31668747 58.53482224 16.31452728 57.84430267 16.31230164 57.13285828 C16.24904004 53.53336742 16.05791628 52.08687442 14 49 C13.68115234 46.9152832 13.68115234 46.9152832 13.5859375 44.55078125 C13.54726563 43.70322266 13.50859375 42.85566406 13.46875 41.98242188 C13.4378125 41.10134766 13.406875 40.22027344 13.375 39.3125 C13.33632813 38.41982422 13.29765625 37.52714844 13.2578125 36.60742188 C13.16359782 34.4051538 13.07798412 32.20289278 13 30 C12.34 30 11.68 30 11 30 C11.33 28.35 11.66 26.7 12 25 C11.34 25 10.68 25 10 25 C9.67 23.02 9.34 21.04 9 19 C8.34 19 7.68 19 7 19 C6.87625 17.205625 6.87625 17.205625 6.75 15.375 C6.24092783 11.08207801 4.52928091 8.50835739 2 5 C2 4.01 2 3.02 2 2 C1.34 2 0.68 2 0 2 C0 1.34 0 0.68 0 0 Z " fill="#4A6F4E" transform="translate(355,143)"/>
<path d="M0 0 C1.2497927 3.7493781 0.41115647 6.36591147 -0.42578125 10.09375 C-2.24680175 18.94853105 -2.34683821 27.49488601 -2.1875 36.5 C-2.17239259 38.01691347 -2.15871513 39.53384186 -2.14648438 41.05078125 C-2.11403454 44.70084086 -2.06260451 48.35031777 -2 52 C-1.34 52 -0.68 52 0 52 C0.50757862 53.41396902 1.00574925 54.83131729 1.5 56.25 C1.7784375 57.03890625 2.056875 57.8278125 2.34375 58.640625 C3 61 3 61 3 65 C3.66 65 4.32 65 5 65 C9 70.41176471 9 70.41176471 9 73 C10.32 73.66 11.64 74.32 13 75 C13 75.66 13 76.32 13 77 C5.82891452 74.34404242 2.42033789 66.77786876 -0.640625 60.28515625 C-4.87879666 50.04290807 -5.26061971 40.27035909 -5.3125 29.3125 C-5.31813965 28.17224365 -5.3237793 27.0319873 -5.32958984 25.85717773 C-5.16671661 6.8106719 -5.16671661 6.8106719 0 0 Z " fill="#406A48" transform="translate(68,287)"/>
<path d="M0 0 C0.99 0 1.98 0 3 0 C3 22.44 3 44.88 3 68 C2.34 68 1.68 68 1 68 C0.20792314 63.81915435 -0.12220437 59.88014108 -0.11352539 55.62744141 C-0.11344986 54.38660797 -0.11337433 53.14577454 -0.11329651 51.86734009 C-0.10819113 50.52874714 -0.10297515 49.19015461 -0.09765625 47.8515625 C-0.09578906 46.47008312 -0.09436658 45.08860308 -0.09336853 43.7071228 C-0.08956702 40.08711897 -0.07975716 36.46715583 -0.06866455 32.84716797 C-0.05839935 29.14681549 -0.05386 25.44645639 -0.04882812 21.74609375 C-0.03813258 14.49737736 -0.02108485 7.2486944 0 0 Z " fill="#2D6232" transform="translate(342,192)"/>
<path d="M0 0 C0.33 0 0.66 0 1 0 C1.02891546 4.45831982 1.04676981 8.91661569 1.0625 13.375 C1.07087891 14.64601563 1.07925781 15.91703125 1.08789062 17.2265625 C1.09111328 18.43828125 1.09433594 19.65 1.09765625 20.8984375 C1.10289307 22.01911621 1.10812988 23.13979492 1.11352539 24.29443359 C1 27 1 27 0 29 C-7.24486551 29.02526739 -14.48971974 29.0428318 -21.73461914 29.05493164 C-24.20142033 29.05997356 -26.66821852 29.06680691 -29.13500977 29.07543945 C-32.67204529 29.08751125 -36.20904145 29.09322956 -39.74609375 29.09765625 C-40.85649521 29.10281754 -41.96689667 29.10797882 -43.11094666 29.11329651 C-44.64242088 29.11340981 -44.64242088 29.11340981 -46.20483398 29.11352539 C-47.56051735 29.11685631 -47.56051735 29.11685631 -48.94358826 29.12025452 C-51 29 -51 29 -52 28 C-52.04063832 26.33382885 -52.042721 24.66611905 -52 23 C-51.67 24.32 -51.34 25.64 -51 27 C-34.83 26.67 -18.66 26.34 -2 26 C-1.71071377 17.81768379 -1.71071377 17.81768379 -1.43188477 9.63500977 C-1.39377686 8.62237061 -1.35566895 7.60973145 -1.31640625 6.56640625 C-1.27974854 5.52427979 -1.24309082 4.48215332 -1.20532227 3.40844727 C-1 1 -1 1 0 0 Z " fill="#89AE3B" transform="translate(206,344)"/>
<path d="M0 0 C0.66 0 1.32 0 2 0 C9.27247552 21.5703036 10.66279249 43.31096561 3 65 C2.34 65 1.68 65 1 65 C0 62 0 62 1.36328125 59.25 C1.90339844 58.1775 2.44351562 57.105 3 56 C6.29032755 40.79763098 5.83679615 25.0474349 2 10 C1.63711344 8.25178738 1.28322765 6.50168674 0.9375 4.75 C0.76089844 3.85796875 0.58429688 2.9659375 0.40234375 2.046875 C0.26957031 1.37140625 0.13679688 0.6959375 0 0 Z " fill="#3F6845" transform="translate(379,282)"/>
<path d="M0 0 C0.33 0 0.66 0 1 0 C1.02505615 0.88260498 1.0501123 1.76520996 1.07592773 2.67456055 C1.1713353 5.96406615 1.27055193 9.25341182 1.37231445 12.54272461 C1.41549804 13.96357775 1.45718408 15.38447726 1.49731445 16.80541992 C1.55542095 18.8534947 1.61899638 20.90133965 1.68359375 22.94921875 C1.72025146 24.17987061 1.75690918 25.41052246 1.79467773 26.6784668 C1.91590107 29.88354672 1.91590107 29.88354672 2.51147461 32.51586914 C3.12674325 35.64448406 3.12977142 38.60895925 3.1328125 41.796875 C3.13410156 43.08464844 3.13539063 44.37242187 3.13671875 45.69921875 C3.13462402 46.36356934 3.1325293 47.02791992 3.13037109 47.71240234 C3.12498007 49.75756115 3.13035061 51.80250389 3.13671875 53.84765625 C3.13542969 55.13027344 3.13414062 56.41289062 3.1328125 57.734375 C3.13168457 58.91225586 3.13055664 60.09013672 3.12939453 61.30371094 C3 64 3 64 2 65 C1.84213692 66.85174706 1.74892644 68.7090911 1.68359375 70.56640625 C1.62075195 72.2534668 1.62075195 72.2534668 1.55664062 73.97460938 C1.51732422 75.15861328 1.47800781 76.34261719 1.4375 77.5625 C1.39431641 78.75037109 1.35113281 79.93824219 1.30664062 81.16210938 C1.20016454 84.10794784 1.09815159 87.0538743 1 90 C0.67 90 0.34 90 0 90 C0 60.3 0 30.6 0 0 Z " fill="#86BB21" transform="translate(204,280)"/>
<path d="M0 0 C0.99 0.33 1.98 0.66 3 1 C3 1.66 3 2.32 3 3 C15.27843401 5.48527339 27.00593586 6.28627584 39.54052734 5.9765625 C41.14661865 5.94369141 41.14661865 5.94369141 42.78515625 5.91015625 C43.74301025 5.88058838 44.70086426 5.85102051 45.68774414 5.82055664 C48 6 48 6 50 8 C45.43622931 10.28188534 39.07117846 9.18504837 34.0625 9.1875 C32.13954102 9.20586914 32.13954102 9.20586914 30.17773438 9.22460938 C19.11812193 9.24152872 9.71677199 8.50005962 0 3 C0 2.01 0 1.02 0 0 Z " fill="#3D6545" transform="translate(82,364)"/>
<path d="M0 0 C2.64590014 -0.02684679 5.29153096 -0.04676357 7.9375 -0.0625 C8.69224609 -0.07087891 9.44699219 -0.07925781 10.22460938 -0.08789062 C12.14994313 -0.09652441 14.07535581 -0.05224333 16 0 C17.8855253 1.8855253 17.13246689 4.57768831 17.13671875 7.08203125 C17.13285156 7.87996094 17.12898438 8.67789063 17.125 9.5 C17.13080078 10.69689453 17.13080078 10.69689453 17.13671875 11.91796875 C17.12660767 17.87339233 17.12660767 17.87339233 16 19 C13.14122091 19.23701239 10.30116703 19.42219182 7.4375 19.5625 C6.63119141 19.60568359 5.82488281 19.64886719 4.99414062 19.69335938 C2.99631195 19.79975262 0.9981793 19.90040888 -1 20 C-1 19.01 -1 18.02 -1 17 C4.3911342 15.74831071 9.48141974 15.93351108 15 16 C15 11.05 15 6.1 15 1 C10.05 1 5.1 1 0 1 C0 0.67 0 0.34 0 0 Z " fill="#8DB92A" transform="translate(305,228)"/>
<path d="M0 0 C5.29615765 4.85481118 8.50464115 10.98573284 9.21923828 18.21923828 C9.4236483 23.15692156 9.26299133 28.06745157 9 33 C7 31 7 31 6.8046875 27.9609375 C6.82789063 26.77757812 6.85109375 25.59421875 6.875 24.375 C6.89304687 23.18648437 6.91109375 21.99796875 6.9296875 20.7734375 C6.95289063 19.85820312 6.97609375 18.94296875 7 18 C6.34 18 5.68 18 5 18 C4.80664062 17.21753906 4.61328125 16.43507812 4.4140625 15.62890625 C4.15367187 14.61699219 3.89328125 13.60507813 3.625 12.5625 C3.36976563 11.55316406 3.11453125 10.54382813 2.8515625 9.50390625 C2.27426046 6.84429676 2.27426046 6.84429676 0 6 C0 4.02 0 2.04 0 0 Z " fill="#93BE35" transform="translate(289,174)"/>
<path d="M0 0 C8.36980236 2.19851951 16.11827559 5.49070196 24 9 C24 9.99 24 10.98 24 12 C23.01 12.33 22.02 12.66 21 13 C21 12.34 21 11.68 21 11 C17.6828589 9.5783681 14.55780196 8.60990891 11 8 C11 7.34 11 6.68 11 6 C9.68 5.67 8.36 5.34 7 5 C7 4.34 7 3.68 7 3 C6.1028125 3.2784375 6.1028125 3.2784375 5.1875 3.5625 C3 4 3 4 0 3 C0 2.01 0 1.02 0 0 Z " fill="#94BF3A" transform="translate(250,152)"/>
<path d="M0 0 C1.28222189 3.03070628 0.98589446 4.03596914 -0.25 7.1875 C-2 10 -2 10 -5 11 C-7.22574335 11.22451458 -9.45581519 11.40782878 -11.6875 11.5625 C-12.86699219 11.64628906 -14.04648438 11.73007813 -15.26171875 11.81640625 C-16.16535156 11.87699219 -17.06898438 11.93757812 -18 12 C-15.39502708 10.26335138 -12.94876394 9.00497041 -10.125 7.6875 C-5.89778734 5.61097448 -3.05241865 3.56115509 0 0 Z " fill="#96C83F" transform="translate(218,140)"/>
<path d="M0 0 C1.32 0.33 2.64 0.66 4 1 C4.99 4.96 5.98 8.92 7 13 C4 12 4 12 2.8125 10.25 C1.89180904 7.70039426 1.85051282 5.69076919 2 3 C1.34 3 0.68 3 0 3 C-0.33 5.64 -0.66 8.28 -1 11 C-1.99 11.33 -2.98 11.66 -4 12 C-3.52494322 10.18641846 -3.04483958 8.37415821 -2.5625 6.5625 C-2.29566406 5.55316406 -2.02882812 4.54382813 -1.75390625 3.50390625 C-1 1 -1 1 0 0 Z " fill="#90B447" transform="translate(224,125)"/>
<path d="M0 0 C15.84 0.33 31.68 0.66 48 1 C48 1.33 48 1.66 48 2 C32.16 2.33 16.32 2.66 0 3 C0 2.01 0 1.02 0 0 Z " fill="#8DC724" transform="translate(244,369)"/>
<path d="M0 0 C0.66 0.99 1.32 1.98 2 3 C-0.8216352 7.99212382 -2.58916047 9.38826057 -8 11 C-9.87310888 12.993252 -9.87310888 12.993252 -11 15 C-11 11 -11 11 -8.59375 8.203125 C-7.57248913 7.20839039 -6.5407803 6.22429311 -5.5 5.25 C-4.97535156 4.74339844 -4.45070313 4.23679687 -3.91015625 3.71484375 C-2.61558637 2.46734913 -1.3089224 1.23242693 0 0 Z " fill="#46754F" transform="translate(113,116)"/>
<path d="M0 0 C0.66 0 1.32 0 2 0 C2 0.66 2 1.32 2 2 C2.66 2 3.32 2 4 2 C4.12375 3.134375 4.2475 4.26875 4.375 5.4375 C4.684375 7.2009375 4.684375 7.2009375 5 9 C5.66 9.33 6.32 9.66 7 10 C6.67 10.66 6.34 11.32 6 12 C6.66 12 7.32 12 8 12 C8.99 14.64 9.98 17.28 11 20 C10.34 20 9.68 20 9 20 C8.67 21.32 8.34 22.64 8 24 C7.82871582 23.41508789 7.65743164 22.83017578 7.48095703 22.22753906 C6.69952824 19.56719879 5.91232659 16.9086005 5.125 14.25 C4.85558594 13.32960937 4.58617187 12.40921875 4.30859375 11.4609375 C4.04433594 10.57148438 3.78007812 9.68203125 3.5078125 8.765625 C3.26691895 7.94868164 3.02602539 7.13173828 2.77783203 6.29003906 C2.02332165 4.06866198 1.10074312 2.06856632 0 0 Z " fill="#567E5A" transform="translate(333,156)"/>
<path d="M0 0 C6.43974581 0.62320121 12.67572401 1.64008262 19 3 C18.67 3.66 18.34 4.32 18 5 C18.33 5.99 18.66 6.98 19 8 C12.54646385 5.94235079 6.2638737 3.57616518 0 1 C0 0.67 0 0.34 0 0 Z " fill="#4A764F" transform="translate(275,111)"/>
<path d="M0 0 C0 0.66 0 1.32 0 2 C0.66 2.33 1.32 2.66 2 3 C-4.35450323 1.75297849 -10.68327435 0.42635741 -17 -1 C-17 -1.66 -17 -2.32 -17 -3 C-10.74456802 -5.02878875 -5.76528535 -2.39023396 0 0 Z " fill="#49764E" transform="translate(273,108)"/>
<path d="M0 0 C6.15859483 3.30461186 9.26313006 8.20674601 13 14 C12.67 14.66 12.34 15.32 12 16 C10 14.75 10 14.75 8 13 C8 11.68 8 10.36 8 9 C7.4225 8.773125 6.845 8.54625 6.25 8.3125 C3.40260191 6.65151778 1.87932807 4.68475439 0 2 C0 1.34 0 0.68 0 0 Z " fill="#3F6E4A" transform="translate(344,126)"/>
<path d="M0 0 C0.97582031 0.00902344 1.95164062 0.01804688 2.95703125 0.02734375 C3.69308594 0.03894531 4.42914063 0.05054688 5.1875 0.0625 C5.5175 1.0525 5.8475 2.0425 6.1875 3.0625 C-2.2275 3.5575 -2.2275 3.5575 -10.8125 4.0625 C-10.8125 3.0725 -10.8125 2.0825 -10.8125 1.0625 C-7.13862505 0.20951624 -3.7677607 -0.04539471 0 0 Z " fill="#9DBE44" transform="translate(314.8125,243.9375)"/>
<path d="M0 0 C0 0.66 0 1.32 0 2 C0.99 2 1.98 2 3 2 C3 2.66 3 3.32 3 4 C1.35 4 -0.3 4 -2 4 C-2 4.66 -2 5.32 -2 6 C-3.32 5.67 -4.64 5.34 -6 5 C-5.34 5 -4.68 5 -4 5 C-4.33 4.34 -4.66 3.68 -5 3 C-7.97 3 -10.94 3 -14 3 C-8.87513572 0.43756786 -5.68186432 -0.10720499 0 0 Z " fill="#377742" transform="translate(189,82)"/>
<path d="M0 0 C3.78091617 1.34313185 6.65651916 3.02964684 9.8125 5.5 C10.60269531 6.1084375 11.39289063 6.716875 12.20703125 7.34375 C12.79871094 7.8903125 13.39039063 8.436875 14 9 C14 9.66 14 10.32 14 11 C9.98265411 9.62262427 7.27258299 7.66973875 4 5 C3.01 4.67 2.02 4.34 1 4 C0.3125 1.9375 0.3125 1.9375 0 0 Z " fill="#96BB3E" transform="translate(275,163)"/>
<path d="M0 0 C0.99 0.33 1.98 0.66 3 1 C2.01 2.485 2.01 2.485 1 4 C-2.125 4.1875 -2.125 4.1875 -5 4 C-5 4.66 -5 5.32 -5 6 C-5.99 6.33 -6.98 6.66 -8 7 C-7.67 5.68 -7.34 4.36 -7 3 C-7.66 3 -8.32 3 -9 3 C-9 2.34 -9 1.68 -9 1 C-6.33333333 1 -3.66666667 1 -1 1 C-0.67 0.67 -0.34 0.34 0 0 Z " fill="#3C7745" transform="translate(148,120)"/>
<path d="M0 0 C0.33 0 0.66 0 1 0 C1 2.64 1 5.28 1 8 C1.99 8.33 2.98 8.66 4 9 C3.67 9.99 3.34 10.98 3 12 C2.01 11.67 1.02 11.34 0 11 C-0.33 12.65 -0.66 14.3 -1 16 C-1.33 16 -1.66 16 -2 16 C-1.85890014 13.89551062 -1.71195825 11.7914123 -1.5625 9.6875 C-1.48128906 8.51574219 -1.40007812 7.34398437 -1.31640625 6.13671875 C-1 3 -1 3 0 0 Z " fill="#9AC74A" transform="translate(154,185)"/>
<path d="M0 0 C2.34770643 3.52155964 2.37669614 5.50771843 2.625 9.6875 C2.69976562 10.86699219 2.77453125 12.04648438 2.8515625 13.26171875 C2.90054687 14.16535156 2.94953125 15.06898438 3 16 C2.01 16 1.02 16 0 16 C0 10.72 0 5.44 0 0 Z " fill="#3E7347" transform="translate(342,176)"/>
<path d="M0 0 C0.99 0.495 0.99 0.495 2 1 C3.58207099 8.33505643 2.67699564 15.58429388 2 23 C1.67 23 1.34 23 1 23 C0.67 15.41 0.34 7.82 0 0 Z " fill="#32643B" transform="translate(384,300)"/>
<path d="M0 0 C0.33 0.66 0.66 1.32 1 2 C2.97888961 2.72693904 4.97954558 3.39816251 7 4 C3.81237635 6.12508244 1.73487777 6.5020163 -2 7 C-2.33 5.02 -2.66 3.04 -3 1 C-2.01 0.67 -1.02 0.34 0 0 Z " fill="#487B4D" transform="translate(171,106)"/>
<path d="M0 0 C3.88433735 3.50843373 3.88433735 3.50843373 4.5 6.125 C4.82698013 8.22075249 4.82698013 8.22075249 7.0625 9.25 C7.701875 9.4975 8.34125 9.745 9 10 C9 10.66 9 11.32 9 12 C4.7835599 10.43835552 2.58130177 7.58514135 0 4 C0 2.68 0 1.36 0 0 Z " fill="#3B623F" transform="translate(72,352)"/>
<path d="M0 0 C0.99 0.33 1.98 0.66 3 1 C4.16063604 5.25566547 3.76173392 8.6835078 3 13 C1.32889958 10.03821227 0.67317248 7.62928808 0.375 4.25 C0.30023438 3.45078125 0.22546875 2.6515625 0.1484375 1.828125 C0.09945312 1.22484375 0.05046875 0.6215625 0 0 Z " fill="#8ACA23" transform="translate(153,195)"/>
<path d="M0 0 C0.66 0.33 1.32 0.66 2 1 C0.22141906 5.00180712 -1.15013949 7.76459712 -5 10 C-5.66 10 -6.32 10 -7 10 C-7 9.34 -7 8.68 -7 8 C-6.34 8 -5.68 8 -5 8 C-4.731875 7.4225 -4.46375 6.845 -4.1875 6.25 C-2.98280141 3.9674132 -1.59201885 2.0262058 0 0 Z " fill="#3C7343" transform="translate(125,139)"/>
<path d="M0 0 C0 0.33 0 0.66 0 1 C-3.96 1.66 -7.92 2.32 -12 3 C-12.33 2.01 -12.66 1.02 -13 0 C-7.85910687 -1.85072153 -5.04468729 -2.21474076 0 0 Z " fill="#4F7C54" transform="translate(194,106)"/>
<path d="M0 0 C2.0625 2.125 2.0625 2.125 4 5 C3.75 8.3125 3.75 8.3125 3 11 C2.34 11 1.68 11 1 11 C0.34 9.02 -0.32 7.04 -1 5 C-0.34 5 0.32 5 1 5 C0.67 3.35 0.34 1.7 0 0 Z " fill="#357945" transform="translate(370,267)"/>
<path d="M0 0 C3.68851835 0.99689685 4.80574807 1.68919691 6.875 5 C7.24625 5.99 7.6175 6.98 8 8 C7.67 8.66 7.34 9.32 7 10 C4.5 7.6875 4.5 7.6875 2 5 C2 4.01 2 3.02 2 2 C1.34 2 0.68 2 0 2 C0 1.34 0 0.68 0 0 Z " fill="#47754E" transform="translate(355,143)"/>
<path d="M0 0 C1.32 0 2.64 0 4 0 C6 3 6 3 6 6 C6.99 6.33 7.98 6.66 9 7 C8.34 7 7.68 7 7 7 C7.33 8.32 7.66 9.64 8 11 C5.64270057 8.80861021 3.97942902 6.56068027 2.3125 3.8125 C1.87550781 3.09707031 1.43851562 2.38164062 0.98828125 1.64453125 C0.66214844 1.10183594 0.33601563 0.55914062 0 0 Z " fill="#4C7E58" transform="translate(325,144)"/>
<path d="M0 0 C-0.33 1.98 -0.66 3.96 -1 6 C-1.99 6 -2.98 6 -4 6 C-4 5.34 -4 4.68 -4 4 C-4.66 4 -5.32 4 -6 4 C-6.33 4.66 -6.66 5.32 -7 6 C-7.66 5.34 -8.32 4.68 -9 4 C-2.25 0 -2.25 0 0 0 Z " fill="#4B8553" transform="translate(144,95)"/>
<path d="M0 0 C2.97 0.495 2.97 0.495 6 1 C4.75023244 4.65316671 4.32901247 5.78065836 1 8 C-1.1875 7.625 -1.1875 7.625 -3 7 C-1.35 5.68 0.3 4.36 2 3 C1.34 2.01 0.68 1.02 0 0 Z " fill="#3B6943" transform="translate(365,360)"/>
<path d="M0 0 C0 3.23655184 -0.6550847 4.78752639 -2 7.6875 C-2.37125 8.49574219 -2.7425 9.30398437 -3.125 10.13671875 C-3.41375 10.75160156 -3.7025 11.36648437 -4 12 C-4.33 12 -4.66 12 -5 12 C-5 9.36 -5 6.72 -5 4 C-4.01 3.67 -3.02 3.34 -2 3 C-2 2.34 -2 1.68 -2 1 C-1.34 0.67 -0.68 0.34 0 0 Z " fill="#507950" transform="translate(117,153)"/>
<path d="M0 0 C5.75 0.875 5.75 0.875 8 2 C8.33 2.99 8.66 3.98 9 5 C9.66 5.33 10.32 5.66 11 6 C10.67 6.66 10.34 7.32 10 8 C8.33055479 6.85821872 6.6645052 5.71147095 5 4.5625 C4.071875 3.92441406 3.14375 3.28632812 2.1875 2.62890625 C1.465625 2.09136719 0.74375 1.55382812 0 1 C0 0.67 0 0.34 0 0 Z " fill="#62805F" transform="translate(301,123)"/>
<path d="M0 0 C0.66 0.33 1.32 0.66 2 1 C-0.14822047 4.2223307 -1.7274751 5.08437567 -5 7 C-6.75149165 8.58245275 -6.75149165 8.58245275 -8 10 C-8.66 9.67 -9.32 9.34 -10 9 C-8.89902432 7.87187697 -7.79408444 6.74762189 -6.6875 5.625 C-6.07261719 4.99851563 -5.45773438 4.37203125 -4.82421875 3.7265625 C-3 2 -3 2 0 0 Z " fill="#8CC022" transform="translate(171,166)"/>
<path d="M0 0 C-0.39803561 2.88575819 -0.79009069 3.82189513 -3.0625 5.75 C-3.701875 6.1625 -4.34125 6.575 -5 7 C-5.66 5.68 -6.32 4.36 -7 3 C-6.34 3 -5.68 3 -5 3 C-5 2.34 -5 1.68 -5 1 C-2 0 -2 0 0 0 Z " fill="#387B41" transform="translate(140,99)"/>
<path d="M0 0 C0.33 0 0.66 0 1 0 C1.66 3.63 2.32 7.26 3 11 C2.34 11 1.68 11 1 11 C0.67 12.32 0.34 13.64 0 15 C0 10.05 0 5.1 0 0 Z " fill="#93C51C" transform="translate(204,304)"/>
<path d="M0 0 C0.99 0 1.98 0 3 0 C3.33 1.65 3.66 3.3 4 5 C3.38125 5.12375 2.7625 5.2475 2.125 5.375 C-0.19120832 5.87197356 -0.19120832 5.87197356 -2 8 C-1.125 2.25 -1.125 2.25 0 0 Z " fill="#44744F" transform="translate(68,283)"/>
<path d="M0 0 C0.33 0 0.66 0 1 0 C0.125 7.75 0.125 7.75 -1 10 C-1.66 10 -2.32 10 -3 10 C-2.25 3.375 -2.25 3.375 0 0 Z " fill="#406D44" transform="translate(111,162)"/>
<path d="M0 0 C0.99 0.66 1.98 1.32 3 2 C-1.455 4.97 -1.455 4.97 -6 8 C-6.66 7.67 -7.32 7.34 -8 7 C-5.36 4.69 -2.72 2.38 0 0 Z " fill="#4D7654" transform="translate(122,108)"/>
<path d="M0 0 C0 0.33 0 0.66 0 1 C-0.93972656 1.30744141 -0.93972656 1.30744141 -1.8984375 1.62109375 C-2.71570313 1.89050781 -3.53296875 2.15992188 -4.375 2.4375 C-5.18710938 2.70433594 -5.99921875 2.97117187 -6.8359375 3.24609375 C-9.01031799 3.95179729 -9.01031799 3.95179729 -11 5 C-10.1875 2.5625 -10.1875 2.5625 -9 0 C-5.52176885 -1.15941038 -3.54104422 -0.70820884 0 0 Z " fill="#94B941" transform="translate(223,266)"/>
<path d="M0 0 C0.66 0.33 1.32 0.66 2 1 C1.67 1.5775 1.34 2.155 1 2.75 C-0.27075898 5.19883862 -0.27075898 5.19883862 0 9 C-1.32 9.33 -2.64 9.66 -4 10 C-2.8905928 6.51329166 -1.73662334 3.22515763 0 0 Z " fill="#387243" transform="translate(92,143)"/>
<path d="M0 0 C5.75 1.875 5.75 1.875 8 3 C8 3.66 8 4.32 8 5 C2.25 4.125 2.25 4.125 0 3 C0 2.01 0 1.02 0 0 Z " fill="#99C042" transform="translate(241,148)"/>
<path d="M0 0 C2.79872437 2.52788007 4.45773019 4.20411134 5 8 C2.525 7.01 2.525 7.01 0 6 C0 4.02 0 2.04 0 0 Z " fill="#97BD43" transform="translate(289,174)"/>
<path d="M0 0 C0.66 0 1.32 0 2 0 C2 0.66 2 1.32 2 2 C3.175625 2.4640625 3.175625 2.4640625 4.375 2.9375 C7 4 7 4 9 5 C8.67 5.66 8.34 6.32 8 7 C4.84859577 6.65930765 3.39218439 6.41923159 1.1875 4.0625 C0 2 0 2 0 0 Z " fill="#89C824" transform="translate(280,169)"/>
<path d="M0 0 C1.32 0.33 2.64 0.66 4 1 C2.60667426 4.36720387 1.0210714 5.9859524 -2 8 C-1.34 5.36 -0.68 2.72 0 0 Z " fill="#4B7550" transform="translate(371,357)"/>
<path d="M0 0 C1.53166168 4.08443115 0.63081652 7.79455657 0 12 C-0.66 12 -1.32 12 -2 12 C-2 8.37 -2 4.74 -2 1 C-1.34 0.67 -0.68 0.34 0 0 Z " fill="#336C40" transform="translate(107,174)"/>
<path d="M0 0 C3.3 0.99 6.6 1.98 10 3 C6.30581799 4.231394 3.7943739 3.64432764 0 3 C0 2.01 0 1.02 0 0 Z " fill="#98BD46" transform="translate(250,152)"/>
<path d="M0 0 C1.98 0.99 1.98 0.99 4 2 C3.67 3.98 3.34 5.96 3 8 C2.01 8 1.02 8 0 8 C0.33 7.01 0.66 6.02 1 5 C0.60602665 2.36195411 0.60602665 2.36195411 0 0 Z " fill="#8DC929" transform="translate(227,136)"/>
<path d="M0 0 C3.08089673 2.77280706 4.68775452 5.06326356 6 9 C3.5625 7.875 3.5625 7.875 1 6 C0.1875 2.8125 0.1875 2.8125 0 0 Z " fill="#507155" transform="translate(351,133)"/>
<path d="M0 0 C3.37503669 1.1858237 5.64722731 2.27573689 8 5 C5.37886292 5 3.49064888 4.68707555 1 4 C0.67 2.68 0.34 1.36 0 0 Z " fill="#567F5A" transform="translate(312,99)"/>
<path d="M0 0 C-0.33 0.99 -0.66 1.98 -1 3 C-3.97 2.505 -3.97 2.505 -7 2 C-7 1.34 -7 0.68 -7 0 C-4.3333581 -1.33332095 -2.83319697 -0.67102033 0 0 Z " fill="#3A7444" transform="translate(280,108)"/>
<path d="M0 0 C1.32 0 2.64 0 4 0 C4 1.32 4 2.64 4 4 C2.35 4.33 0.7 4.66 -1 5 C-1 1 -1 1 0 0 Z " fill="#367541" transform="translate(265,82)"/>
<path d="M0 0 C1.125 3.75 1.125 3.75 0 6 C-1.65 6 -3.3 6 -5 6 C-3.35 4.02 -1.7 2.04 0 0 Z " fill="#A4C63D" transform="translate(218,140)"/>
<path d="" fill="#FFFFFF" transform="translate(0,0)"/>
<path d="" fill="#FFFFFF" transform="translate(0,0)"/>
<path d="" fill="#FFFFFF" transform="translate(0,0)"/>
<path d="" fill="#FFFFFF" transform="translate(0,0)"/>
<path d="" fill="#FFFFFF" transform="translate(0,0)"/>
<path d="" fill="#FFFFFF" transform="translate(0,0)"/>
<path d="" fill="#FFFFFF" transform="translate(0,0)"/>
<path d="" fill="#FFFFFF" transform="translate(0,0)"/>
<path d="" fill="#FFFFFF" transform="translate(0,0)"/>
<path d="" fill="#FFFFFF" transform="translate(0,0)"/>
<path d="" fill="#FFFFFF" transform="translate(0,0)"/>
<path d="" fill="#FFFFFF" transform="translate(0,0)"/>
<path d="" fill="#FFFFFF" transform="translate(0,0)"/>
<path d="" fill="#FFFFFF" transform="translate(0,0)"/>
<path d="" fill="#FFFFFF" transform="translate(0,0)"/>
<path d="" fill="#FFFFFF" transform="translate(0,0)"/>
<path d="" fill="#FFFFFF" transform="translate(0,0)"/>
<path d="" fill="#FFFFFF" transform="translate(0,0)"/>
<path d="" fill="#FFFFFF" transform="translate(0,0)"/>
<path d="" fill="#FFFFFF" transform="translate(0,0)"/>
<path d="" fill="#FFFFFF" transform="translate(0,0)"/>
<path d="" fill="#FFFFFF" transform="translate(0,0)"/>
<path d="" fill="#FFFFFF" transform="translate(0,0)"/>
<path d="" fill="#FFFFFF" transform="translate(0,0)"/>
<path d="" fill="#FFFFFF" transform="translate(0,0)"/>
<path d="" fill="#FFFFFF" transform="translate(0,0)"/>
<path d="" fill="#FFFFFF" transform="translate(0,0)"/>
<path d="" fill="#FFFFFF" transform="translate(0,0)"/>
<path d="" fill="#FFFFFF" transform="translate(0,0)"/>
<path d="" fill="#FFFFFF" transform="translate(0,0)"/>
<path d="" fill="#FFFFFF" transform="translate(0,0)"/>
<path d="" fill="#FFFFFF" transform="translate(0,0)"/>
<path d="" fill="#FFFFFF" transform="translate(0,0)"/>
<path d="" fill="#FFFFFF" transform="translate(0,0)"/>
<path d="" fill="#FFFFFF" transform="translate(0,0)"/>
<path d="" fill="#FEFFFF" transform="translate(0,0)"/>
<path d="" fill="#FFFFFF" transform="translate(0,0)"/>
<path d="" fill="#FFFFFF" transform="translate(0,0)"/>
<path d="" fill="#FFFFFF" transform="translate(0,0)"/>
<path d="" fill="#FFFFFF" transform="translate(0,0)"/>
<path d="" fill="#FFFFFF" transform="translate(0,0)"/>
<path d="" fill="#FFFFFF" transform="translate(0,0)"/>
<path d="" fill="#FFFFFF" transform="translate(0,0)"/>
<path d="" fill="#FFFFFF" transform="translate(0,0)"/>
<path d="" fill="#FFFFFF" transform="translate(0,0)"/>
<path d="" fill="#FFFFFF" transform="translate(0,0)"/>
<path d="" fill="#FFFFFF" transform="translate(0,0)"/>
<path d="" fill="#FFFFFF" transform="translate(0,0)"/>
<path d="" fill="#FFFFFF" transform="translate(0,0)"/>
<path d="" fill="#FFFFFF" transform="translate(0,0)"/>
<path d="" fill="#FFFFFF" transform="translate(0,0)"/>
<path d="" fill="#FFFFFF" transform="translate(0,0)"/>
</svg>
